<svg xmlns="http://www.w3.org/2000/svg" width="600" height="400" viewBox="0 0 600 400"><rect width="100%" height="100%" fill="#DDDDDD"/><path fill="#999999" d="M135.435 167.22v66.52h-12.42v-66.52h12.42Zm12.24 0h9.89v13.25l-1.01 7.18q-.37 2.02-1.2 3.1t-2.76 1.08q-1.7 0-2.62-1.08-.92-1.08-1.29-3.1l-1.01-7.18v-13.25Zm31.65 66.52h-11.37v-47.2h6.95q2.21 0 2.9 2.07l.73 3.5q1.25-1.38 2.6-2.53 1.36-1.15 2.9-1.98 1.54-.83 3.31-1.31 1.77-.48 3.89-.48 4.46 0 7.34 2.41 2.87 2.42 4.3 6.42 1.1-2.35 2.76-4.03 1.65-1.67 3.63-2.73t4.21-1.57q2.23-.5 4.49-.5 3.91 0 6.94 1.19 3.04 1.2 5.11 3.5 2.07 2.3 3.15 5.61 1.08 3.31 1.08 7.59v30.04h-11.36V203.7q0-4.51-1.98-6.78-1.98-2.28-5.8-2.28-1.74 0-3.24.6-1.49.6-2.62 1.72-1.13 1.13-1.77 2.83-.65 1.7-.65 3.91v30.04h-11.4V203.7q0-4.74-1.91-6.9t-5.59-2.16q-2.49 0-4.63 1.22-2.13 1.22-3.97 3.33v34.55Zm88.41-47.2h11.41v47.2h-11.41v-47.2Zm12.97-13.75q0 1.47-.6 2.76-.6 1.29-1.59 2.25-.98.97-2.32 1.55-1.33.57-2.85.57-1.47 0-2.78-.57-1.31-.58-2.28-1.55-.97-.96-1.54-2.25-.58-1.29-.58-2.76 0-1.52.58-2.85.57-1.34 1.54-2.3.97-.97 2.28-1.54 1.31-.58 2.78-.58 1.52 0 2.85.58 1.34.57 2.32 1.54.99.96 1.59 2.3.6 1.33.6 2.85Zm19.87 15.82.78 3.73q1.43-1.43 3.02-2.65 1.58-1.21 3.35-2.07 1.78-.85 3.8-1.33 2.02-.48 4.42-.48 3.86 0 6.85 1.31 2.99 1.31 4.99 3.68t3.04 5.66q1.03 3.29 1.03 7.24v30.04h-11.36V203.7q0-4.32-1.98-6.69t-6.02-2.37q-2.95 0-5.52 1.33-2.58 1.34-4.88 3.64v34.13h-11.36v-47.2h6.94q2.21 0 2.9 2.07Zm95.77 3.04-2.57 4.09q-.46.74-.97 1.04-.5.3-1.29.3-.82 0-1.77-.46-.94-.46-2.18-1.04-1.24-.57-2.83-1.03-1.59-.46-3.75-.46-3.36 0-5.27 1.42-1.91 1.43-1.91 3.73 0 1.52.99 2.55.99 1.04 2.62 1.82 1.64.78 3.71 1.4 2.07.62 4.21 1.36 2.14.74 4.21 1.68t3.7 2.39q1.63 1.45 2.62 3.47.99 2.03.99 4.88 0 3.4-1.22 6.28-1.22 2.87-3.61 4.97-2.39 2.09-5.91 3.26-3.52 1.18-8.12 1.18-2.44 0-4.76-.44t-4.46-1.22q-2.14-.78-3.96-1.84-1.82-1.06-3.2-2.3l2.63-4.32q.5-.79 1.19-1.2.69-.41 1.75-.41t2 .59q.94.6 2.19 1.29 1.24.69 2.92 1.29 1.68.6 4.25.6 2.03 0 3.47-.49 1.45-.48 2.4-1.26.94-.78 1.38-1.82.43-1.03.43-2.14 0-1.65-.99-2.71-.98-1.06-2.62-1.84-1.63-.78-3.72-1.4-2.1-.62-4.28-1.36-2.19-.74-4.28-1.72-2.09-.99-3.73-2.51-1.63-1.52-2.62-3.73-.99-2.21-.99-5.33 0-2.9 1.15-5.52 1.15-2.63 3.38-4.58 2.24-1.96 5.57-3.13 3.34-1.17 7.71-1.17 4.87 0 8.87 1.61 4.01 1.61 6.67 4.23Zm19.09-2.25.69 5.33q2.21-4.23 5.25-6.65 3.03-2.41 7.17-2.41 3.27 0 5.25 1.43l-.74 8.51q-.23.82-.67 1.17-.43.34-1.17.34-.69 0-2.05-.23-1.35-.23-2.64-.23-1.89 0-3.36.56-1.47.55-2.64 1.58-1.18 1.04-2.07 2.51-.9 1.47-1.68 3.36v29.07h-11.36v-47.2h6.67q1.74 0 2.43.63.69.62.92 2.23Zm61.09 2.99-2.99 4.14q-.5.64-.99 1.01-.48.37-1.4.37-.87 0-1.7-.53t-1.98-1.2q-1.15-.67-2.74-1.2-1.58-.52-3.93-.52-2.99 0-5.24 1.08-2.26 1.08-3.75 3.1-1.5 2.03-2.23 4.9-.74 2.88-.74 6.51 0 3.77.8 6.72.81 2.94 2.33 4.94 1.52 2 3.68 3.04 2.16 1.03 4.87 1.03 2.72 0 4.4-.67 1.68-.66 2.83-1.47 1.15-.8 2-1.47.85-.67 1.91-.67 1.38 0 2.07 1.06l3.26 4.14q-1.88 2.21-4.09 3.71-2.21 1.49-4.58 2.39-2.37.89-4.88 1.26-2.5.37-4.99.37-4.37 0-8.23-1.63-3.86-1.64-6.76-4.76-2.9-3.13-4.58-7.66-1.68-4.53-1.68-10.33 0-5.2 1.5-9.64 1.49-4.44 4.39-7.68 2.9-3.24 7.18-5.08 4.27-1.84 9.84-1.84 5.29 0 9.27 1.7 3.98 1.7 7.15 4.88Z"/></svg>