<svg xmlns="http://www.w3.org/2000/svg" width="600" height="400" viewBox="0 0 600 400"><rect width="100%" height="100%" fill="#DDDDDD"/><path fill="#999999" d="M131.12 170.405v49.16h-9.18v-49.16h9.18Zm9.05 0h7.31v9.79l-.75 5.3q-.27 1.5-.88 2.3-.61.8-2.04.8-1.26 0-1.94-.8-.68-.8-.95-2.3l-.75-5.3v-9.79Zm23.39 49.16h-8.4v-34.88h5.14q1.63 0 2.14 1.53l.54 2.58q.92-1.02 1.92-1.87 1.01-.85 2.15-1.46 1.13-.61 2.44-.97t2.88-.36q3.3 0 5.42 1.79 2.13 1.78 3.18 4.74.82-1.73 2.04-2.98 1.22-1.24 2.69-2.02 1.46-.78 3.11-1.15 1.65-.38 3.31-.38 2.89 0 5.14.89 2.24.88 3.77 2.58 1.53 1.7 2.33 4.15t.8 5.61v22.2h-8.4v-22.2q0-3.33-1.46-5.02-1.46-1.68-4.29-1.68-1.29 0-2.39.44-1.11.44-1.94 1.28-.83.83-1.31 2.09-.48 1.26-.48 2.89v22.2h-8.43v-22.2q0-3.5-1.41-5.1-1.41-1.6-4.13-1.6-1.84 0-3.42.9-1.58.9-2.94 2.47v25.53Zm65.35-34.88h8.43v34.88h-8.43v-34.88Zm9.59-10.17q0 1.09-.44 2.04-.45.95-1.18 1.67-.73.71-1.71 1.13-.99.43-2.11.43-1.09 0-2.06-.43-.97-.42-1.68-1.13-.72-.72-1.14-1.67-.43-.95-.43-2.04 0-1.12.43-2.11.42-.98 1.14-1.7.71-.71 1.68-1.14.97-.42 2.06-.42 1.12 0 2.11.42.98.43 1.71 1.14.73.72 1.18 1.7.44.99.44 2.11Zm14.69 11.7.57 2.75q1.06-1.05 2.23-1.95 1.17-.91 2.48-1.54 1.31-.62 2.81-.98 1.49-.36 3.26-.36 2.86 0 5.07.97 2.21.97 3.69 2.72 1.48 1.75 2.24 4.18.77 2.43.77 5.36v22.2h-8.4v-22.2q0-3.2-1.46-4.95-1.47-1.75-4.46-1.75-2.17 0-4.08.99-1.9.98-3.6 2.68v25.23h-8.4v-34.88h5.13q1.64 0 2.15 1.53Zm55.99 8.67v15.64q1.43 1.73 3.11 2.44 1.69.72 3.66.72 1.9 0 3.43-.72 1.53-.71 2.6-2.17 1.08-1.46 1.65-3.69.58-2.23.58-5.25 0-3.06-.49-5.19-.49-2.12-1.41-3.45-.92-1.33-2.23-1.94-1.31-.61-2.97-.61-2.62 0-4.46 1.1-1.83 1.11-3.47 3.12Zm-1.12-8.67.68 3.23q2.14-2.42 4.86-3.91 2.72-1.5 6.4-1.5 2.85 0 5.21 1.19 2.37 1.19 4.08 3.45 1.72 2.26 2.66 5.58.93 3.31.93 7.6 0 3.91-1.05 7.24-1.06 3.33-3.01 5.78-1.96 2.45-4.73 3.82-2.77 1.38-6.2 1.38-2.93 0-5-.9t-3.71-2.5v14.28h-8.39v-46.27h5.13q1.63 0 2.14 1.53Zm53.01-1.53h8.4v34.88h-5.14q-1.66 0-2.11-1.53l-.57-2.79q-2.15 2.18-4.73 3.52-2.58 1.34-6.09 1.34-2.85 0-5.05-.97-2.19-.96-3.68-2.73-1.5-1.77-2.27-4.2-.76-2.43-.76-5.36v-22.16h8.4v22.16q0 3.2 1.48 4.95t4.43 1.75q2.18 0 4.08-.97 1.91-.97 3.61-2.67v-25.22Zm25.09 10.2v15.64q1.43 1.73 3.11 2.44 1.68.72 3.55.72 1.94 0 3.49-.7 1.55-.7 2.63-2.18 1.09-1.47 1.67-3.77.58-2.29.58-5.49 0-5.75-1.91-8.31-1.9-2.57-5.47-2.57-2.41 0-4.22 1.1-1.8 1.11-3.43 3.12Zm0-25.84v19.92q2.11-2.21 4.67-3.52 2.57-1.31 5.87-1.31 3.03 0 5.46 1.19t4.14 3.42q1.72 2.23 2.64 5.39.92 3.16.92 7.1 0 4.25-1.06 7.72-1.05 3.47-3.01 5.93-1.95 2.47-4.7 3.83-2.76 1.36-6.12 1.36-1.64 0-2.96-.32-1.33-.33-2.45-.9-1.12-.58-2.06-1.42-.93-.83-1.78-1.85l-.38 2.35q-.2.88-.69 1.26-.5.37-1.35.37h-5.54v-50.52h8.4Zm30.29 0h8.4v50.52h-8.4v-50.52Zm17.07 15.64h8.43v34.88h-8.43v-34.88Zm9.59-10.17q0 1.09-.44 2.04t-1.18 1.67q-.73.71-1.71 1.13-.99.43-2.11.43-1.09 0-2.06-.43-.97-.42-1.68-1.13-.71-.72-1.14-1.67-.42-.95-.42-2.04 0-1.12.42-2.11.43-.98 1.14-1.7.71-.71 1.68-1.14.97-.42 2.06-.42 1.12 0 2.11.42.98.43 1.71 1.14.74.72 1.18 1.7.44.99.44 2.11Zm34.61 14.48-2.21 3.06q-.37.48-.73.75t-1.04.27q-.64 0-1.25-.39-.62-.39-1.47-.88t-2.02-.89q-1.17-.39-2.91-.39-2.21 0-3.87.8-1.67.8-2.77 2.3-1.11 1.49-1.65 3.62-.55 2.12-.55 4.81 0 2.79.6 4.96.59 2.18 1.72 3.66 1.12 1.48 2.72 2.24 1.59.77 3.6.77t3.25-.5q1.24-.49 2.09-1.08.85-.6 1.48-1.09.63-.49 1.41-.49 1.02 0 1.53.78l2.41 3.06q-1.39 1.63-3.02 2.73-1.64 1.11-3.39 1.77-1.75.67-3.6.94-1.85.27-3.69.27-3.23 0-6.09-1.21-2.85-1.2-4.99-3.52-2.15-2.31-3.39-5.66-1.24-3.35-1.24-7.63 0-3.84 1.11-7.12 1.1-3.28 3.24-5.68 2.15-2.4 5.31-3.76 3.16-1.36 7.27-1.36 3.91 0 6.85 1.26 2.95 1.26 5.29 3.6Z"/></svg>